<?xml version="1.0" encoding="UTF-8"?>
<svg width="21px" height="13px" viewBox="0 0 21 13" version="1.1" xmlns="http://www.w3.org/2000/svg" xmlns:xlink="http://www.w3.org/1999/xlink">
    <!-- Generator: Sketch 46.2 (44496) - http://www.bohemiancoding.com/sketch -->
    <title>icon-vk</title>
    <desc>Created with Sketch.</desc>
    <defs></defs>
    <g id="Portfolio" stroke="none" stroke-width="1" fill="none" fill-rule="evenodd" opacity="0.200000003">
        <g id="Desktop" transform="translate(-923.000000, -149.000000)" fill-rule="nonzero" fill="#000000">
            <g id="Group-5" transform="translate(78.000000, 144.000000)">
                <g id="Group-4" transform="translate(545.000000, 3.000000)">
                    <g id="Group" transform="translate(235.000000, 1.000000)">
                        <g id="icon-vk" transform="translate(65.000000, 1.000000)">
                            <path d="M20.8886272,10.9050504 C20.8631986,10.8498207 20.8394933,10.8040082 20.8174731,10.7673042 C20.4531243,10.105976 19.7568635,9.2942424 18.729112,8.33187188 L18.7073982,8.30983403 L18.6965221,8.29902739 L18.6855311,8.28795057 L18.6745018,8.28795057 C18.2080558,7.83982207 17.9126782,7.53850959 17.7889819,7.3842447 C17.5626522,7.09038109 17.5119482,6.79292812 17.6356445,6.49153845 C17.7230361,6.26382696 18.05131,5.78293116 18.6197002,5.04819493 C18.9186775,4.65880828 19.1554621,4.34672774 19.330322,4.11160598 C20.5914497,2.4219095 21.1382026,1.34217106 20.9704658,0.871966122 L20.9053242,0.762085677 C20.8615518,0.695933558 20.7485784,0.635416334 20.5665572,0.580225243 C20.3841148,0.525149937 20.15093,0.516041477 19.8665818,0.552745483 L16.7177261,0.574667538 C16.6667157,0.556450619 16.5938766,0.558148806 16.498979,0.580225243 C16.4041962,0.602301679 16.3567857,0.613378492 16.3567857,0.613378492 L16.301984,0.640974038 L16.2584797,0.674127288 C16.2220218,0.696049344 16.1819258,0.734605917 16.1381534,0.789719818 C16.0946108,0.844640743 16.0581912,0.909094674 16.0290862,0.98254128 C15.6862599,1.87142661 15.2964825,2.69786495 14.8590265,3.46181772 C14.5893074,3.91735649 14.3416084,4.31214647 14.1153936,4.64641923 C13.8894851,4.9805762 13.6999578,5.22677478 13.5470033,5.38459042 C13.3938191,5.54256045 13.2555703,5.669114 13.1314144,5.76471424 C13.0074501,5.86035307 12.9128205,5.90076221 12.8472959,5.88598026 C12.7816182,5.87119831 12.71977,5.85653214 12.6612154,5.84186598 C12.5592329,5.77571386 12.4772028,5.68574852 12.4153546,5.57189278 C12.3532384,5.45803703 12.3114191,5.31473317 12.289552,5.14209698 C12.2677999,4.969345 12.2549324,4.8207536 12.251256,4.69582104 C12.2478476,4.57104286 12.2494178,4.39454716 12.2568089,4.16683566 C12.2643915,3.93900838 12.2677999,3.78485928 12.2677999,3.704041 C12.2677999,3.42484355 12.2731996,3.12183288 12.2840374,2.7949318 C12.2950667,2.46803072 12.3039897,2.20901855 12.3114574,2.01820403 C12.3188868,1.82719654 12.3223335,1.62511224 12.3223335,1.41206691 C12.3223335,1.19902158 12.309466,1.0319431 12.2840374,0.910677076 C12.2589152,0.789565437 12.2203511,0.672004553 12.1695322,0.558033021 C12.1184069,0.444177273 12.0435764,0.356103099 11.9453853,0.293578926 C11.8470027,0.231131943 11.7246851,0.181575746 11.5791217,0.144755956 C11.1927527,0.0566431857 10.7007632,0.00897815252 10.1029233,0.00156788016 C8.74720429,-0.0130982839 7.87608369,0.0751302715 7.48975298,0.266137761 C7.33668361,0.346840258 7.19816674,0.457106655 7.07431727,0.596589594 C6.94307665,0.758264755 6.92477113,0.846493311 7.0195156,0.861005094 C7.45693326,0.927041427 7.76659524,1.08501145 7.94884622,1.33476079 L8.01452397,1.46710362 C8.06561092,1.56258807 8.11662128,1.73163491 8.16766993,1.97401257 C8.218642,2.21639022 8.25153832,2.48451086 8.26601423,2.77822009 C8.30239549,3.31457715 8.30239549,3.77370528 8.26601423,4.15564306 C8.22951808,4.53773523 8.19505162,4.8351882 8.1621553,5.04823353 C8.12925898,5.26127886 8.08008683,5.43391505 8.01452397,5.5661035 C7.94884622,5.69833055 7.90515041,5.77914883 7.88324506,5.80848116 C7.861378,5.83781349 7.84314908,5.85630057 7.82867316,5.86355646 C7.7339287,5.90014468 7.63539292,5.91878615 7.5334105,5.91878615 C7.43127489,5.91878615 7.30742542,5.8673002 7.16167059,5.76440548 C7.01595406,5.66151076 6.8647229,5.52017525 6.70797711,5.34016738 C6.55123131,5.16012092 6.37445667,4.90851902 6.1775766,4.58532308 C5.98084971,4.26212713 5.77673168,3.88015075 5.5653374,3.43939393 L5.39043927,3.11974874 C5.28110401,2.91411368 5.13174935,2.61469236 4.94222212,2.22175495 C4.75258001,1.82866316 4.58495813,1.44842356 4.4392416,1.08111334 C4.38099329,0.926848452 4.29348678,0.809403354 4.17687526,0.728585071 L4.12215018,0.695431821 C4.08576892,0.666099493 4.02736742,0.634953192 3.94725205,0.601761347 C3.86702179,0.568608097 3.78330659,0.544833473 3.69576179,0.530205904 L0.699898891,0.55212796 C0.393760144,0.55212796 0.186042286,0.62202381 0.0766687229,0.761622535 L0.0328963202,0.827658868 C0.0110292668,0.864440064 0,0.923181911 0,1.00403879 C0,1.08485707 0.0218670533,1.18404665 0.065639456,1.30149175 C0.502980523,2.33738608 0.978579358,3.33642202 1.49243596,4.29875395 C2.00629257,5.26108588 2.45282469,6.03626984 2.83176426,6.62361112 C3.21078042,7.21137694 3.59711112,7.7661053 3.99075638,8.28752603 C4.38440164,8.80913973 4.64496806,9.14341248 4.77245567,9.2902671 C4.90009645,9.43739188 5.00035555,9.54738811 5.07323296,9.62083472 L5.34662857,9.88525022 C5.521565,10.0615915 5.77845501,10.2727843 6.11741348,10.5188285 C6.45644855,10.7650271 6.83178829,11.0074047 7.24362417,11.2463474 C7.65553665,11.4849042 8.13473532,11.6795782 8.68148824,11.830138 C9.22816458,11.9808521 9.76025011,12.0413307 10.2778214,12.0121528 L11.5352344,12.0121528 C11.7902479,11.9899605 11.9834516,11.9091423 12.1147688,11.7696593 L12.1582731,11.7144296 C12.1875313,11.6705855 12.214913,11.6024651 12.2401884,11.5108015 C12.2657702,11.4189836 12.2784845,11.3178257 12.2784845,11.2077909 C12.2710167,10.8919666 12.2948752,10.6073272 12.3494088,10.3539114 C12.4039041,10.1005727 12.4660203,9.90956518 12.5354894,9.78092748 C12.6049201,9.65240557 12.6832739,9.54395314 12.770474,9.45603335 C12.8578657,9.36792058 12.9201351,9.31454346 12.9566695,9.29617216 C12.9929742,9.27768508 13.0219643,9.26514165 13.0438313,9.25761559 C13.2187678,9.19887374 13.4246474,9.25576302 13.6617767,9.42855359 C13.8987144,9.60118978 14.1209465,9.8143509 14.3288175,10.0676896 C14.5365737,10.3212598 14.7861874,10.6057448 15.0776971,10.9215691 C15.3693982,11.2375091 15.62445,11.4723607 15.8430439,11.6268572 L16.0616379,11.7590842 C16.2076225,11.8473128 16.3971497,11.9281311 16.6304493,12.0015777 C16.8633277,12.0749857 17.0673692,12.093357 17.2425737,12.056653 L20.0415182,12.0126545 C20.3183604,12.0126545 20.5337758,11.9664561 20.6865771,11.8747926 C20.8396848,11.7829747 20.9306379,11.6818167 20.9599727,11.5717819 C20.9892309,11.4616313 20.9908011,11.3366601 20.9655257,11.1969456 C20.9395992,11.0575785 20.9140557,10.9601257 20.8886272,10.9050504 Z" id="Shape"></path>
                        </g>
                    </g>
                </g>
            </g>
        </g>
    </g>
</svg>