<?xml version="1.0" encoding="UTF-8"?>
<svg width="18px" height="13px" viewBox="0 0 18 13" version="1.1" xmlns="http://www.w3.org/2000/svg" xmlns:xlink="http://www.w3.org/1999/xlink">
    <!-- Generator: Sketch 46.2 (44496) - http://www.bohemiancoding.com/sketch -->
    <title>icon-mail-hover</title>
    <desc>Created with Sketch.</desc>
    <defs></defs>
    <g id="Portfolio" stroke="none" stroke-width="1" fill="none" fill-rule="evenodd">
        <g id="Group-Copy" transform="translate(0.000000, -1.000000)" fill-rule="nonzero" fill="#0084B1">
            <g id="icon-mail" transform="translate(0.000000, 1.000000)">
                <path d="M9,9 L6.77314286,7.05085714 L0.406285714,12.5087143 C0.637714286,12.7234286 0.950142857,12.8571429 1.29471429,12.8571429 L16.7052857,12.8571429 C17.0485714,12.8571429 17.3597143,12.7234286 17.5898571,12.5087143 L11.2268571,7.05085714 L9,9 Z" id="Shape"></path>
                <path d="M17.5937143,0.348428571 C17.3622857,0.132428571 17.0511429,0 16.7052857,0 L1.29471429,0 C0.951428571,0 0.640285714,0.133714286 0.408857143,0.351 L9,7.71428571 L17.5937143,0.348428571 Z" id="Shape"></path>
                <polygon id="Shape" points="0 1.12885714 0 11.8105714 6.21385714 6.53014286"></polygon>
                <polygon id="Shape" points="11.7861429 6.53014286 18 11.8105714 18 1.125"></polygon>
            </g>
        </g>
    </g>
</svg>