<?xml version="1.0" encoding="UTF-8"?>
<svg width="17px" height="15px" viewBox="0 0 17 15" version="1.1" xmlns="http://www.w3.org/2000/svg" xmlns:xlink="http://www.w3.org/1999/xlink">
    <!-- Generator: Sketch 46.2 (44496) - http://www.bohemiancoding.com/sketch -->
    <title>icon-tl</title>
    <desc>Created with Sketch.</desc>
    <defs></defs>
    <g id="Portfolio" stroke="none" stroke-width="1" fill="none" fill-rule="evenodd" opacity="0.200000003">
        <g id="Desktop" transform="translate(-890.000000, -148.000000)" fill-rule="nonzero" fill="#000000">
            <g id="Group-5" transform="translate(78.000000, 144.000000)">
                <g id="Group-4" transform="translate(545.000000, 3.000000)">
                    <g id="Group" transform="translate(235.000000, 1.000000)">
                        <g id="icon-tl" transform="translate(32.000000, 0.000000)">
                            <path d="M0.300270533,6.7928652 L4.21741566,8.19217594 L5.73359098,12.8590942 C5.83060444,13.1579935 6.21248161,13.2684739 6.46595194,13.0701298 L8.6494348,11.3664418 C8.87831176,11.1879484 9.20431552,11.1790535 9.44350584,11.3452352 L13.381731,14.081864 C13.6528813,14.2704997 14.0370252,14.1282907 14.1050253,13.8146933 L16.9899857,0.532576761 C17.0642191,0.190016815 16.7125454,-0.0957571492 16.3717516,0.0303977645 L0.295680527,5.96613289 C-0.101043326,6.11257239 -0.097586655,6.65016805 0.300270533,6.7928652 Z M5.48924399,7.44728704 L13.1448074,2.93440144 C13.2823942,2.85353429 13.4239477,3.03159387 13.3057976,3.13648794 L6.98773929,8.7575951 C6.76566233,8.95545113 6.62240881,9.22023544 6.58183542,9.5076365 L6.36661514,11.0341869 C6.33811177,11.238009 6.03896805,11.2582393 5.98020464,11.0609799 L5.15247355,8.27727356 C5.05767009,7.95977104 5.19582361,7.62062801 5.48924399,7.44728704 Z" id="XMLID_497_"></path>
                        </g>
                    </g>
                </g>
            </g>
        </g>
    </g>
</svg>